# xmcd
#
# Track frame offsets: 
#        150
#        16679
#        35097
#        50760
#        65589
#        86777
#        104077
#        121330
#        141358
#        155156
#        167605
#        186706
#        208682
#        229224
#
# Disc length: 3320 seconds
#
# Revision: 0
# Processed by: cddbd v1.5.2PL0 Copyright (c) Steve Scherf et al.
# Submitted via: ExactAudioCopy v1.2
#
DISCID=d70cf60e
DTITLE=Bill Carter - "Unknown"
DYEAR=2013
DGENRE=Blues
TTITLE0=Fire on the Wire
TTITLE1=Deep Soul Sermon
TTITLE2=Revelry
TTITLE3=Eva Bible
TTITLE4=Final Sacrifice
TTITLE5=Brain
TTITLE6=Fields of Stone
TTITLE7=Can't Function
TTITLE8=Amerijuana
TTITLE9=Bel Air Motel
TTITLE10=Anything Made of Paper
TTITLE11=Devil in Evilin
TTITLE12=Save You
TTITLE13=That's What I'm Doin' Here
EXTD=
EXTT0=
EXTT1=
EXTT2=
EXTT3=
EXTT4=
EXTT5=
EXTT6=
EXTT7=
EXTT8=
EXTT9=
EXTT10=
EXTT11=
EXTT12=
EXTT13=
PLAYORDER=
